<svg xmlns="http://www.w3.org/2000/svg" viewBox="0 0 24 24">
                                    <defs>
                                        <linearGradient id="train-grad" x1="0%" y1="0%" x2="100%" y2="100%">
                                            <stop offset="0%" style="stop-color:#D4AF37;stop-opacity:1" />
                                            <stop offset="100%" style="stop-color:#B8962E;stop-opacity:1" />
                                        </linearGradient>
                                    </defs>
                                    <path d="M12 2c-4 0-8 .5-8 4v9.5C4 17.43 5.57 19 7.5 19L6 20.5v.5h2.25l.75-.75h6l.75.75H18v-.5L16.5 19c1.93 0 3.5-1.57 3.5-3.5V6c0-3.5-3.58-4-8-4zM7.5 17c-.83 0-1.5-.67-1.5-1.5S6.67 14 7.5 14s1.5.67 1.5 1.5S8.33 17 7.5 17zm3.5-7H6V6h5v4zm2 0V6h5v4h-5zm3.5 7c-.83 0-1.5-.67-1.5-1.5s.67-1.5 1.5-1.5 1.5.67 1.5 1.5-.67 1.5-1.5 1.5z" fill="url(#train-grad)" />
                                    <path d="M12 22v-2" stroke="#D4AF37" stroke-width="1.5" stroke-linecap="round" />
                                    <path d="M7 22v-2" stroke="#D4AF37" stroke-width="1.5" stroke-linecap="round" />
                                </svg>